<?xml version="1.0" encoding="iso-8859-1"?>
<!-- Generator: Adobe Illustrator 18.1.1, SVG Export Plug-In . SVG Version: 6.00 Build 0)  -->
<svg version="1.1" id="Capa_1" xmlns="http://www.w3.org/2000/svg" xmlns:xlink="http://www.w3.org/1999/xlink" x="0px" y="0px"
	 viewBox="0 0 16.333 16.333" style="enable-background:new 0 0 16.333 16.333;" xml:space="preserve">
<g>
	<path style="fill:#030104;" d="M0,8.704l0.172,1.274c0,0,0.521,0.038,0.826,0c0.662,0.853,2.157,0.872,3.167,1.376
		c-0.008,0.778-0.897,1.023-0.964,1.516c0.123,0.048,0.239-0.2,0.347-0.185c0.101,0.016,0.194,0.298,0.283,0.289
		c0.775-0.07,1.139-0.969,1.298-1.758c1.339,0.169,0.581,1.107,0.275,1.723c0.157-0.051,0.54-0.27,0.684-0.246
		c0,0,0.176,0.309,0.487,0.108c0.001-0.538,0.32-1.088,0.137-1.585c1.452-0.058,3.122-0.197,4.476-0.825
		c0.563-0.262,1.146-0.88,1.376-0.139c0.383,1.232-1.023,2.006-1.238,2.549c0.063,0.015,0.314-0.164,0.374-0.153
		c0.063,0.01,0.074,0.212-0.006,0.212c1.188,0.082,1.503-1.09,1.697-2.125c0.819,0.515,0.133,1.472-0.137,2.066
		c0.296-0.061,0.217-0.05,0.344,0.138c1.086,0.24,1.207-1.493,1.032-2.41c-0.068-0.368-0.404-0.468-0.413-0.759
		c-0.01-0.376,0.346-0.507,0.482-0.756c0.249-0.454,0.188-0.867,0.413-1.241c0.408,0.098,0.42,0.591,0.482,1.034
		c0.246-0.143,0.11-0.639,0.068-0.895c0.544-0.144,1.005-1.067,0.345-1.583c-0.373-0.195-0.736,0.044-0.827,0.344
		c-0.611-0.533-0.638-1.085-1.101-1.515c-1.566-1.449-3.134-1.962-5.888-1.756C5.438,3.609,2.892,6.374,2.717,6.397
		C2.84,6.38,1.688,6.047,1.409,5.984C1.108,5.916,0.881,5.796,0.72,5.777C0.683,6.415,1.75,6.912,1.823,7.429
		C1.954,8.359,0,8.704,0,8.704z M15.32,6.948c0.326-0.583,0.901,0.36,0.275,0.482C15.486,7.287,15.37,7.149,15.32,6.948z
		 M2.331,7.959c0-0.228,0.184-0.411,0.411-0.411c0.227,0,0.411,0.184,0.411,0.411c0,0.227-0.185,0.411-0.411,0.411
		C2.515,8.37,2.331,8.186,2.331,7.959z"/>
</g>
<g>
</g>
<g>
</g>
<g>
</g>
<g>
</g>
<g>
</g>
<g>
</g>
<g>
</g>
<g>
</g>
<g>
</g>
<g>
</g>
<g>
</g>
<g>
</g>
<g>
</g>
<g>
</g>
<g>
</g>
</svg>
